<svg xmlns="http://www.w3.org/2000/svg" x="0px" y="0px"
width="50" height="50"
viewBox="0 0 226 226"
style=" fill:#000000;"><g fill="none" fill-rule="nonzero" stroke="none" stroke-width="1" stroke-linecap="butt" stroke-linejoin="miter" stroke-miterlimit="10" stroke-dasharray="" stroke-dashoffset="0" font-family="none" font-weight="none" font-size="none" text-anchor="none" style="mix-blend-mode: normal"><path d="M0,226v-226h226v226z" fill="none"></path><g><path d="M197.75,174.20833c0,13.18333 -10.35833,23.54167 -23.54167,23.54167h-122.41667c-13.18333,0 -23.54167,-10.35833 -23.54167,-23.54167v-122.41667c0,-13.18333 10.35833,-23.54167 23.54167,-23.54167h122.41667c13.18333,0 23.54167,10.35833 23.54167,23.54167z" fill="#f4987f"></path><path d="M65.91667,70.625h94.16667v9.41667h-94.16667zM141.25,89.45833h-75.33333v9.41667h75.33333zM65.91667,117.70833h94.16667v-9.41667h-94.16667zM65.91667,136.54167h75.33333v-9.41667h-75.33333zM65.91667,155.375h94.16667v-9.41667h-94.16667z" fill="#ffffff"></path></g></g></svg>