<svg xmlns="http://www.w3.org/2000/svg" x="0px" y="0px"
width="40" height="40"
viewBox="0 0 226 226"
style=" fill:#000000;"><g transform="translate(5.198,5.198) scale(0.954,0.954)"><g fill="none" fill-rule="nonzero" stroke="none" stroke-width="none" stroke-linecap="butt" stroke-linejoin="none" stroke-miterlimit="10" stroke-dasharray="" stroke-dashoffset="0" font-family="none" font-weight="none" font-size="none" text-anchor="none" style="mix-blend-mode: normal"><g stroke="#0b67c2" stroke-width="11" stroke-linejoin="round"><path d="M197.75,42.375v103.58333c0,7.797 -6.328,14.125 -14.125,14.125h-115.0905l-40.2845,37.66667v-155.375c0,-7.80171 6.32329,-14.125 14.125,-14.125h141.25c7.797,0 14.125,6.32329 14.125,14.125z" fill="#673ab7"></path><path d="M47.08333,65.91667h131.83333v9.41667h-131.83333zM47.08333,89.45833h131.83333v9.41667h-131.83333zM47.08333,113h75.33333v9.41667h-75.33333z" fill="#d1c4e9"></path></g><path d="M0,226v-226h226v226z" fill="none" stroke="none" stroke-width="1" stroke-linejoin="miter"></path><g stroke="none" stroke-width="1" stroke-linejoin="miter"><path d="M183.625,28.25h-141.25c-7.80171,0 -14.125,6.32329 -14.125,14.125v155.375l40.2845,-37.66667h115.0905c7.797,0 14.125,-6.328 14.125,-14.125v-103.58333c0,-7.80171 -6.328,-14.125 -14.125,-14.125z" fill="#ffffff"></path><path d="M47.08333,65.91667h131.83333v9.41667h-131.83333zM47.08333,89.45833h131.83333v9.41667h-131.83333zM47.08333,113h75.33333v9.41667h-75.33333z" fill="#0b67c2"></path></g><path d="" fill="none" stroke="none" stroke-width="1" stroke-linejoin="miter"></path></g></g></svg>