<svg xmlns="http://www.w3.org/2000/svg" x="0px" y="0px"
width="50" height="50"
viewBox="0 0 226 226"
style=" fill:#000000;"><g fill="none" fill-rule="nonzero" stroke="none" stroke-width="1" stroke-linecap="butt" stroke-linejoin="miter" stroke-miterlimit="10" stroke-dasharray="" stroke-dashoffset="0" font-family="none" font-weight="none" font-size="none" text-anchor="none" style="mix-blend-mode: normal"><path d="M0,226v-226h226v226z" fill="none"></path><g><path d="M23.54167,178.91667v-113h178.91667v113c0,10.35833 -8.475,18.83333 -18.83333,18.83333h-141.25c-10.35833,0 -18.83333,-8.475 -18.83333,-18.83333z" fill="#cccccc"></path><path d="M202.45833,47.08333v28.25h-178.91667v-28.25c0,-10.35833 8.475,-18.83333 18.83333,-18.83333h141.25c10.35833,0 18.83333,8.475 18.83333,18.83333z" fill="#e7a33e"></path><path d="M155.375,32.95833c-7.80102,0 -14.125,6.32398 -14.125,14.125c0,7.80102 6.32398,14.125 14.125,14.125c7.80102,0 14.125,-6.32398 14.125,-14.125c0,-7.80102 -6.32398,-14.125 -14.125,-14.125zM70.625,32.95833c-7.80102,0 -14.125,6.32398 -14.125,14.125c0,7.80102 6.32398,14.125 14.125,14.125c7.80102,0 14.125,-6.32398 14.125,-14.125c0,-7.80102 -6.32398,-14.125 -14.125,-14.125z" fill="#ffffff"></path><path d="M155.375,14.125c-5.17917,0 -9.41667,4.2375 -9.41667,9.41667v23.54167c0,5.17917 4.2375,9.41667 9.41667,9.41667c5.17917,0 9.41667,-4.2375 9.41667,-9.41667v-23.54167c0,-5.17917 -4.2375,-9.41667 -9.41667,-9.41667zM70.625,14.125c-5.17917,0 -9.41667,4.2375 -9.41667,9.41667v23.54167c0,5.17917 4.2375,9.41667 9.41667,9.41667c5.17917,0 9.41667,-4.2375 9.41667,-9.41667v-23.54167c0,-5.17917 -4.2375,-9.41667 -9.41667,-9.41667z" fill="#ffffff"></path><g fill="#ffffff"><path d="M61.20833,98.875h28.25v28.25h-28.25zM98.875,98.875h28.25v28.25h-28.25zM136.54167,98.875h28.25v28.25h-28.25zM61.20833,136.54167h28.25v28.25h-28.25zM98.875,136.54167h28.25v28.25h-28.25z"></path></g><path d="M136.54167,136.54167h28.25v28.25h-28.25z" fill="#e7a33e"></path></g></g></svg>