<svg xmlns="http://www.w3.org/2000/svg" x="0px" y="0px"
width="96" height="96"
viewBox="0 0 172 172"
style=" fill:#000000;"><g fill="none" fill-rule="nonzero" stroke="none" stroke-width="1" stroke-linecap="butt" stroke-linejoin="miter" stroke-miterlimit="10" stroke-dasharray="" stroke-dashoffset="0" font-family="none" font-weight="none" font-size="none" text-anchor="none" style="mix-blend-mode: normal"><path d="M0,172v-172h172v172z" fill="none"></path><path d="M86,172c-47.49649,0 -86,-38.50351 -86,-86v0c0,-47.49649 38.50351,-86 86,-86v0c47.49649,0 86,38.50351 86,86v0c0,47.49649 -38.50351,86 -86,86z" fill="#ecf0f1"></path><g><path d="M33.11,44.86333c0,-6.49078 5.26256,-11.75333 11.75333,-11.75333h82.27333c6.49078,0 11.75333,5.26256 11.75333,11.75333v82.27333c0,6.49078 -5.26255,11.75333 -11.75333,11.75333h-82.27333c-6.49078,0 -11.75333,-5.26255 -11.75333,-11.75333z" fill="#0066c2"></path><path d="M50.74,94.815h70.52v8.815h-70.52zM50.74,68.37h70.52v8.815h-70.52z" fill="#ffffff"></path><path d="M94.815,50.74h8.815v70.52h-8.815zM68.37,50.74h8.815v70.52h-8.815z" fill="#ffffff"></path></g></g></svg>