<svg xmlns="http://www.w3.org/2000/svg" x="0px" y="0px"
width="40" height="40"
viewBox="0 0 226 226"
style=" fill:#000000;"><g transform="translate(5.198,5.198) scale(0.954,0.954)"><g fill="none" fill-rule="nonzero" stroke="none" stroke-width="none" stroke-linecap="butt" stroke-linejoin="none" stroke-miterlimit="10" stroke-dasharray="" stroke-dashoffset="0" font-family="none" font-weight="none" font-size="none" text-anchor="none" style="mix-blend-mode: normal"><g stroke="#0b67c2" stroke-width="11" stroke-linejoin="round"><path d="M202.45833,113c0,49.40647 -40.05186,89.45833 -89.45833,89.45833c-49.40647,0 -89.45833,-40.05186 -89.45833,-89.45833c0,-49.40647 40.05186,-89.45833 89.45833,-89.45833c49.40647,0 89.45833,40.05186 89.45833,89.45833z" fill="#ffffff"></path><path d="M94.6375,70.625c2.825,-3.29583 5.17917,-7.0625 6.12083,-11.3l2.35417,-9.41667c0.47083,-1.88333 1.88333,-3.29583 3.76667,-3.29583h2.35417c5.65,0 10.35833,4.70833 10.35833,10.35833v4.2375c0,8.94583 -2.35417,17.89167 -6.59167,25.425l-8.475,15.06667l-26.36667,-13.18333z" fill="#0b67c2"></path><path d="M140.30833,160.08333c-3.29583,0 -50.85,0 -50.85,0c-10.35833,0 -18.83333,-8.475 -18.83333,-18.83333v-37.66667c0,-10.35833 8.475,-18.83333 18.83333,-18.83333h61.20833c5.17917,0 9.41667,4.2375 9.41667,9.41667c0,5.17917 -2.35417,7.0625 -2.35417,9.41667c0,2.35417 2.35417,4.2375 2.35417,9.41667c0,5.17917 -3.76667,8.475 -4.2375,10.82917c-0.94167,2.825 0.47083,7.53333 -0.94167,10.82917c-1.4125,3.29583 -4.2375,5.17917 -4.70833,8.475c-0.47083,3.29583 1.4125,7.0625 0,10.82917c-1.88333,2.825 -5.17917,6.12083 -9.8875,6.12083z" fill="#0b67c2"></path></g><path d="M0,226v-226h226v226z" fill="none" stroke="none" stroke-width="1" stroke-linejoin="miter"></path><g stroke="none" stroke-width="1" stroke-linejoin="miter"><path d="M113,23.54167c-49.40647,0 -89.45833,40.05186 -89.45833,89.45833c0,49.40647 40.05186,89.45833 89.45833,89.45833c49.40647,0 89.45833,-40.05186 89.45833,-89.45833c0,-49.40647 -40.05186,-89.45833 -89.45833,-89.45833z" fill="#ffffff"></path><path d="M78.15833,88.51667l26.36667,13.18333l8.475,-15.06667c4.2375,-7.53333 6.59167,-16.47917 6.59167,-25.425v-4.2375c0,-5.65 -4.70833,-10.35833 -10.35833,-10.35833h-2.35417c-1.88333,0 -3.29583,1.4125 -3.76667,3.29583l-2.35417,9.41667c-0.94167,4.2375 -3.29583,8.00417 -6.12083,11.3z" fill="#0b67c2"></path><path d="M140.30833,160.08333c-3.29583,0 -50.85,0 -50.85,0c-10.35833,0 -18.83333,-8.475 -18.83333,-18.83333v-37.66667c0,-10.35833 8.475,-18.83333 18.83333,-18.83333h61.20833c5.17917,0 9.41667,4.2375 9.41667,9.41667c0,5.17917 -2.35417,7.0625 -2.35417,9.41667c0,2.35417 2.35417,4.2375 2.35417,9.41667c0,5.17917 -3.76667,8.475 -4.2375,10.82917c-0.94167,2.825 0.47083,7.53333 -0.94167,10.82917c-1.4125,3.29583 -4.2375,5.17917 -4.70833,8.475c-0.47083,3.29583 1.4125,7.0625 0,10.82917c-1.88333,2.825 -5.17917,6.12083 -9.8875,6.12083z" fill="#0b67c2"></path></g><path d="" fill="none" stroke="none" stroke-width="1" stroke-linejoin="miter"></path><path d="" fill="none" stroke="none" stroke-width="1" stroke-linejoin="miter"></path><path d="" fill="none" stroke="none" stroke-width="1" stroke-linejoin="miter"></path></g></g></svg>