<svg xmlns="http://www.w3.org/2000/svg" x="0px" y="0px"
width="50" height="50"
viewBox="0 0 226 226"
style=" fill:#000000;"><g fill="none" fill-rule="nonzero" stroke="none" stroke-width="1" stroke-linecap="butt" stroke-linejoin="miter" stroke-miterlimit="10" stroke-dasharray="" stroke-dashoffset="0" font-family="none" font-weight="none" font-size="none" text-anchor="none" style="mix-blend-mode: normal"><path d="M0,226v-226h226v226z" fill="none"></path><g><path d="M188.33333,193.04167h-150.66667c-10.35833,0 -18.83333,-8.475 -18.83333,-18.83333v-122.41667c0,-10.35833 8.475,-18.83333 18.83333,-18.83333h150.66667c10.35833,0 18.83333,8.475 18.83333,18.83333v122.41667c0,10.35833 -8.475,18.83333 -18.83333,18.83333z" fill="#79b9e8"></path><path d="M164.79167,61.20833c-7.80102,0 -14.125,6.32398 -14.125,14.125c0,7.80102 6.32398,14.125 14.125,14.125c7.80102,0 14.125,-6.32398 14.125,-14.125c0,-7.80102 -6.32398,-14.125 -14.125,-14.125z" fill="#ffffff"></path><path d="M94.16667,75.33333l-51.79167,75.33333h103.58333z" fill="#096494"></path><path d="M145.95833,103.58333l-37.66667,47.08333h75.33333z" fill="#ffffff"></path></g></g></svg>