<svg xmlns="http://www.w3.org/2000/svg" x="0px" y="0px"
width="50" height="50"
viewBox="0 0 226 226"
style=" fill:#000000;"><g fill="none" fill-rule="nonzero" stroke="none" stroke-width="1" stroke-linecap="butt" stroke-linejoin="miter" stroke-miterlimit="10" stroke-dasharray="" stroke-dashoffset="0" font-family="none" font-weight="none" font-size="none" text-anchor="none" style="mix-blend-mode: normal"><path d="M0,226v-226h226v226z" fill="none"></path><g fill="#7f7e7e"><path d="M201.28125,37.07813h-176.5625c-7.76875,0 -14.125,6.35625 -14.125,14.125v114.76563c0,3.00156 2.29531,5.29688 5.29688,5.29688c3.00156,0 5.29688,-2.29531 5.29688,-5.29687v-12.35937h15.89063v24.71875h-3.53125c-3.00156,0 -5.29687,2.29531 -5.29687,5.29688c0,3.00156 2.29531,5.29688 5.29688,5.29688h167.73438c7.76875,0 14.125,-6.35625 14.125,-14.125v-123.59375c0,-7.76875 -6.35625,-14.125 -14.125,-14.125zM37.07813,143.01563h-15.89062v-24.71875h15.89063zM37.07813,107.70313h-15.89062v-24.71875h15.89063zM37.07813,72.39063h-15.89062v-21.1875c0,-1.94219 1.58906,-3.53125 3.53125,-3.53125h12.35938zM129.06719,117.59062l-27.89687,16.06719c-3.53125,2.11875 -7.94531,-0.52969 -7.94531,-4.59062v-32.13437c0,-4.06094 4.41406,-6.70937 7.94531,-4.59063l27.89687,16.06719c3.53125,2.11875 3.53125,7.0625 0,9.18125zM204.8125,174.79688c0,1.94219 -1.58906,3.53125 -3.53125,3.53125h-12.35937v-24.71875h15.89063zM204.8125,143.01563h-15.89062v-24.71875h15.89063zM204.8125,107.70313h-15.89062v-24.71875h15.89063zM204.8125,72.39063h-15.89062v-24.71875h12.35938c1.94219,0 3.53125,1.58906 3.53125,3.53125z"></path></g></g></svg>