<svg xmlns="http://www.w3.org/2000/svg" x="0px" y="0px"
width="40" height="40"
viewBox="0 0 226 226"
style=" fill:#000000;"><g fill="none" fill-rule="nonzero" stroke="none" stroke-width="1" stroke-linecap="butt" stroke-linejoin="miter" stroke-miterlimit="10" stroke-dasharray="" stroke-dashoffset="0" font-family="none" font-weight="none" font-size="none" text-anchor="none" style="mix-blend-mode: normal"><path d="M0,226v-226h226v226z" fill="none"></path><path d="M113,226c-62.40818,0 -113,-50.59182 -113,-113v0c0,-62.40818 50.59182,-113 113,-113v0c62.40818,0 113,50.59182 113,113v0c0,62.40818 -50.59182,113 -113,113z" fill="#ffffff"></path><g fill="#0b67c2"><path d="M181.85581,94.33788l-50.73586,43.48788v-86.97576z"></path><path d="M44.14419,123.3298v47.11187h28.99192v-47.11187c0,-7.99452 6.50144,-14.49596 14.49596,-14.49596h61.60783v-28.99192h-61.60783c-23.97994,0 -43.48788,19.50794 -43.48788,43.48788"></path></g></g></svg>