<svg xmlns="http://www.w3.org/2000/svg" x="0px" y="0px"
width="50" height="50"
viewBox="0 0 226 226"
style=" fill:#000000;"><g fill="none" fill-rule="nonzero" stroke="none" stroke-width="1" stroke-linecap="butt" stroke-linejoin="miter" stroke-miterlimit="10" stroke-dasharray="" stroke-dashoffset="0" font-family="none" font-weight="none" font-size="none" text-anchor="none" style="mix-blend-mode: normal"><path d="M0,226v-226h226v226z" fill="none"></path><g><path d="M211.875,37.66667h-197.75v150.66667h197.75zM103.58333,160.08333h18.83333v18.83333h-18.83333zM141.25,160.08333h18.83333v18.83333h-18.83333zM178.91667,160.08333h18.83333v18.83333h-18.83333zM65.91667,160.08333h18.83333v18.83333h-18.83333zM28.25,160.08333h18.83333v18.83333h-18.83333zM103.58333,47.08333h18.83333v18.83333h-18.83333zM141.25,47.08333h18.83333v18.83333h-18.83333zM178.91667,47.08333h18.83333v18.83333h-18.83333zM65.91667,47.08333h18.83333v18.83333h-18.83333zM28.25,47.08333h18.83333v18.83333h-18.83333z" fill="#7ec15f"></path><path d="M98.875,84.75v56.5l47.08333,-25.79696z" fill="#ffffff"></path></g></g></svg>